<svg xmlns="http://www.w3.org/2000/svg" width="81.757" height="79.609" viewBox="0 0 81.757 79.609"><defs><style>.a{fill:#8c4799;}.b{fill:#602c6d;}.c{fill:#42145f;}</style></defs><g transform="translate(27.987 0)"><g transform="translate(8.906 19.254)"><rect class="a" width="8.945" height="60.356"/></g><path class="a" d="M98.07,69.319,111.449,46.15l13.379,23.169Z" transform="translate(-98.07 -46.15)"/></g><g transform="translate(0 16.991)"><g transform="translate(8.719 19.028)"><path class="b" d="M94.633,164.72H85.688c0-7.542-2.849-8.9-8.527-11.616-7.643-3.651-18.115-8.657-19.2-31.552l8.935-.423c.831,17.553,7.287,20.642,14.123,23.9C87.086,147.931,94.633,151.538,94.633,164.72Z" transform="translate(-57.96 -121.13)"/></g><path class="b" d="M39.81,104.266,53.895,81.52l12.658,23.572Z" transform="translate(-39.81 -81.52)"/></g><g transform="translate(36.86 28.175)"><g transform="translate(0 18.687)"><path class="c" d="M125.485,176.448H116.54c0-14.239,8.633-16.564,14.935-18.264,6.25-1.686,11.183-3.012,12.663-14.484l8.873,1.143c-2.243,17.4-12.452,20.157-19.206,21.978C127.916,168.4,125.485,169.06,125.485,176.448Z" transform="translate(-116.54 -143.7)"/></g><g transform="translate(18.139)"><path class="c" d="M154.3,127.81l13.648-23.01,13.11,23.323Z" transform="translate(-154.3 -104.8)"/></g></g></svg>