<svg xmlns="http://www.w3.org/2000/svg" width="60.717" height="74.416" viewBox="0 0 60.717 74.416"><defs><style>.a,.c{fill:#42145f;}.b{fill:#fff;}.c{stroke:#fff;stroke-miterlimit:10;}.d{fill:#8c4799;}</style></defs><g transform="translate(-56.14 -40.057)"><path class="a" d="M106.35,136.062H61.833a5.693,5.693,0,0,1-5.693-5.693V100.493a5.513,5.513,0,0,1,5.513-5.513h44.876a5.513,5.513,0,0,1,5.513,5.513V130.37A5.69,5.69,0,0,1,106.35,136.062Z" transform="translate(0 -30.524)"/><path class="b" d="M108.767,41.388l15.266,15.669a1.6,1.6,0,0,1,.118.131,2.236,2.236,0,0,1-.162,3.032L89.908,93.426a2.239,2.239,0,0,1-3.037.083,1.676,1.676,0,0,1-.127-.123L71.483,77.718a.674.674,0,0,1-.053-.057,2.24,2.24,0,0,1,.092-3.111L105.6,41.344a2.239,2.239,0,0,1,3.111-.013A.669.669,0,0,1,108.767,41.388Z" transform="translate(-8.272 0)"/><path class="c" d="M108.714,41.331a2.239,2.239,0,0,0-3.111.013l-5.233,5.1L76.755,69.453l-5.233,5.1a2.24,2.24,0,0,0-.092,3.111c.018.018.035.039.053.057l4.187,4.3,6.887,7.071h0l4.187,4.3.053.053h0c.026.022.048.044.074.066a.015.015,0,0,0,.009,0s.009.009.013.009a.8.8,0,0,0,.07.057.1.1,0,0,1,.022.018.748.748,0,0,1,.061.048c.009.009.022.013.031.022s.039.026.057.039l.035.022a.647.647,0,0,0,.057.035c.013.009.026.013.039.022l.053.026c.013.009.031.013.044.022l.053.026.048.022a.513.513,0,0,1,.048.022c.018,0,.031.013.048.017s.035.013.048.018.035.013.048.018l.048.013.053.013.048.013.053.013a.186.186,0,0,0,.048.009.22.22,0,0,0,.053.009c.018,0,.031,0,.048.009s.035,0,.053.009.031,0,.048,0,.035,0,.053,0,.031,0,.048,0a.27.27,0,0,1,.057,0h.153a.214.214,0,0,0,.053,0c.018,0,.035,0,.048,0s.035,0,.053,0,.035,0,.048,0,.035,0,.053-.009.035,0,.048-.009.035,0,.053-.009A.226.226,0,0,1,88.819,94l.053-.013.048-.013.053-.013a365.821,365.821,0,0,0,.1-.035c.018,0,.035-.013.048-.018s.031-.013.048-.018a.512.512,0,0,0,.048-.022l.048-.022a.427.427,0,0,1,.048-.022.406.406,0,0,0,.044-.022.478.478,0,0,0,.048-.026l.044-.026a.462.462,0,0,0,.048-.031.384.384,0,0,1,.044-.026.194.194,0,0,0,.048-.035l.039-.026.053-.039a.242.242,0,0,0,.035-.026.554.554,0,0,0,.057-.048A.078.078,0,0,1,89.8,93.5c.026-.026.052-.048.083-.074h0l5.233-5.1L118.73,65.322l5.233-5.1.079-.079.026-.026a.3.3,0,0,0,.048-.057c.009-.013.017-.022.026-.035l.039-.053.026-.039c.013-.018.026-.035.035-.048l.026-.039a.462.462,0,0,1,.031-.048.386.386,0,0,0,.026-.044.461.461,0,0,1,.031-.048.2.2,0,0,0,.022-.044.479.479,0,0,1,.026-.048c.009-.013.013-.031.022-.044a.267.267,0,0,0,.022-.053.213.213,0,0,0,.018-.048c.009-.018.013-.035.022-.053s.013-.031.018-.048.013-.035.017-.053.009-.031.013-.048l.013-.053c0-.018.009-.035.013-.048l.013-.053a2259.5,2259.5,0,0,1,.018-.105c0-.018,0-.035.009-.053s0-.035.009-.053a.213.213,0,0,0,0-.053c0-.018,0-.035,0-.053s0-.035,0-.052a.213.213,0,0,1,0-.053v-.21a.213.213,0,0,0,0-.053c0-.018,0-.035,0-.053s0-.035,0-.053a.22.22,0,0,0-.009-.053c0-.018,0-.035-.009-.053s0-.035-.009-.052a.22.22,0,0,1-.009-.053l-.013-.053c0-.018-.009-.035-.013-.048l-.013-.053c0-.018-.009-.031-.013-.048s-.013-.035-.017-.053a.213.213,0,0,0-.018-.048.267.267,0,0,0-.022-.053c0-.013-.013-.031-.018-.044a.269.269,0,0,1-.022-.053.452.452,0,0,1-.017-.044c-.009-.018-.018-.035-.026-.057s-.013-.026-.022-.039-.022-.039-.031-.057l-.022-.035c-.013-.022-.026-.039-.039-.061s-.013-.022-.018-.031a.629.629,0,0,0-.048-.066.044.044,0,0,0-.018-.022c-.018-.026-.039-.048-.057-.074,0,0-.009-.009-.009-.013s0,0,0-.009c-.022-.026-.044-.053-.066-.074h0c-.018-.018-.035-.039-.053-.057h0l-4.187-4.3-6.887-7.071-4.187-4.3C108.75,41.366,108.732,41.348,108.714,41.331Zm9.832,13.442a11.816,11.816,0,0,0-.958,2.735,11.2,11.2,0,0,0,.2,5.723L93.081,87.3a11.118,11.118,0,0,0-5.719-.35,11.7,11.7,0,0,0-3.255,1.133l-7.4-7.6a11.7,11.7,0,0,0,1.221-3.225,11.157,11.157,0,0,0-.206-5.736l24.7-24.07a11.151,11.151,0,0,0,5.728.354,11.755,11.755,0,0,0,2.757-.888Z" transform="translate(-8.272 0)"/><path class="b" d="M118.346,98.224h-.131a10.009,10.009,0,1,1,.131,0Zm0-19.415a9.553,9.553,0,1,0,6.843,2.888h0a9.47,9.47,0,0,0-6.717-2.884C118.425,78.81,118.381,78.81,118.342,78.81Z" transform="translate(-29.437 -21.254)"/><circle class="a" cx="8.489" cy="8.489" r="8.489" transform="matrix(0.534, -0.846, 0.846, 0.534, 77.197, 69.758)"/><path class="b" d="M126.511,97.3a9.806,9.806,0,0,1-3.067,1.855l-1.917-1.969a12.031,12.031,0,0,0,2.065-.871,7.129,7.129,0,0,0,1.645-1.146,2.384,2.384,0,0,0,.621-.84.588.588,0,0,0-.162-.634.568.568,0,0,0-.494-.166,3.615,3.615,0,0,0-.862.241c-.376.14-.862.35-1.47.621a6.807,6.807,0,0,1-1.825.56,3,3,0,0,1-1.431-.123,3.343,3.343,0,0,1-1.251-.866,2.694,2.694,0,0,1-.862-2.144,4.677,4.677,0,0,1,1.221-2.52l-1.282-1.317,1.225-1.195,1.269,1.3a9.8,9.8,0,0,1,2.945-1.737l.941,2.376a7.766,7.766,0,0,0-2.778,1.619,1.938,1.938,0,0,0-.556.766.52.52,0,0,0,.14.529.589.589,0,0,0,.455.188,2.6,2.6,0,0,0,.761-.188,14.145,14.145,0,0,0,1.308-.564,6.476,6.476,0,0,1,2.752-.735,2.779,2.779,0,0,1,1.947.919,3.031,3.031,0,0,1,.945,2.236,4.3,4.3,0,0,1-1.09,2.564l1.545,1.588-1.225,1.195Z" transform="translate(-34.478 -25.671)"/><path class="d" d="M106.35,156.482H61.833a5.693,5.693,0,0,1-5.693-5.693V115.4h50.21a5.693,5.693,0,0,1,5.693,5.693v29.7A5.69,5.69,0,0,1,106.35,156.482Z" transform="translate(0 -42.009)"/><path class="a" d="M159.121,160.173H142.057a2.837,2.837,0,0,1-2.827-2.827v-9.67a2.837,2.837,0,0,1,2.827-2.827h17.065a2.837,2.837,0,0,1,2.827,2.827v9.67A2.837,2.837,0,0,1,159.121,160.173Z" transform="translate(-46.733 -58.573)"/><circle class="d" cx="4.459" cy="4.459" r="4.459" transform="translate(94.963 97.259) rotate(-76.714)"/><g transform="translate(60.568 76.125)"><path class="a" d="M164.61,196.463h-1.063a.586.586,0,1,1,0-1.173H164.6a.586.586,0,0,1,.009,1.173Z" transform="translate(-120.648 -163.068)"/><path class="a" d="M154.961,196.463h-1.055a.586.586,0,0,1,0-1.173h1.055a.586.586,0,0,1,0,1.173Z" transform="translate(-115.226 -163.068)"/><path class="a" d="M145.321,196.463h-1.055a.586.586,0,0,1,0-1.173h1.055a.586.586,0,1,1,0,1.173Z" transform="translate(-109.804 -163.068)"/><path class="a" d="M135.681,196.463h-1.055a.586.586,0,1,1,0-1.173h1.055a.586.586,0,1,1,0,1.173Z" transform="translate(-104.382 -163.068)"/><path class="a" d="M126.051,196.463H125a.586.586,0,1,1,0-1.173h1.055a.586.586,0,0,1,0,1.173Z" transform="translate(-98.966 -163.068)"/><path class="a" d="M116.411,196.463h-1.055a.586.586,0,1,1,0-1.173h1.055a.586.586,0,1,1,0,1.173Z" transform="translate(-93.544 -163.068)"/><path class="a" d="M106.781,196.463h-1.055a.586.586,0,1,1,0-1.173h1.055a.586.586,0,0,1,0,1.173Z" transform="translate(-88.128 -163.068)"/><path class="a" d="M97.141,196.463H96.086a.586.586,0,1,1,0-1.173h1.055a.586.586,0,0,1,0,1.173Z" transform="translate(-82.706 -163.068)"/><path class="a" d="M87.5,196.463H86.446a.586.586,0,1,1,0-1.173H87.5a.586.586,0,1,1,0,1.173Z" transform="translate(-77.284 -163.068)"/><path class="a" d="M77.871,196.463H76.816a.586.586,0,1,1,0-1.173h1.055a.586.586,0,1,1,0,1.173Z" transform="translate(-71.868 -163.068)"/><path class="a" d="M68.743,194.751a.594.594,0,0,1-.3-.083,3.092,3.092,0,0,1-.945-.884.588.588,0,0,1,.967-.669,1.913,1.913,0,0,0,.582.543.588.588,0,0,1-.3,1.094Z" transform="translate(-66.897 -161.703)"/><path class="a" d="M67,185.667a.586.586,0,0,1-.586-.586v-1.055a.586.586,0,0,1,1.173,0v1.055A.586.586,0,0,1,67,185.667Z" transform="translate(-66.344 -156.403)"/><path class="a" d="M67,176.027a.586.586,0,0,1-.586-.586v-1.055a.586.586,0,0,1,1.173,0v1.055A.586.586,0,0,1,67,176.027Z" transform="translate(-66.344 -150.981)"/><path class="a" d="M67,166.387a.586.586,0,0,1-.586-.586v-1.055a.586.586,0,0,1,1.173,0V165.8A.586.586,0,0,1,67,166.387Z" transform="translate(-66.344 -145.559)"/><path class="a" d="M67,156.757a.586.586,0,0,1-.586-.586v-1.055a.586.586,0,0,1,1.173,0v1.055A.586.586,0,0,1,67,156.757Z" transform="translate(-66.344 -140.143)"/><path class="a" d="M67,147.117a.586.586,0,0,1-.586-.586v-1.055a.586.586,0,1,1,1.173,0v1.055A.586.586,0,0,1,67,147.117Z" transform="translate(-66.344 -134.721)"/><path class="a" d="M67,137.487a.586.586,0,0,1-.586-.586v-1.055a.586.586,0,0,1,1.173,0v1.05A.587.587,0,0,1,67,137.487Z" transform="translate(-66.344 -129.305)"/><path class="a" d="M66.776,127.286a.59.59,0,0,1-.512-.656l.053-.42a2.967,2.967,0,0,1,.2-.757.587.587,0,1,1,1.085.446,1.613,1.613,0,0,0-.118.459l-.053.42A.58.58,0,0,1,66.776,127.286Z" transform="translate(-66.26 -123.584)"/><path class="a" d="M161.741,122.823h-1.055a.586.586,0,1,1,0-1.173h1.055a.586.586,0,0,1,0,1.173Z" transform="translate(-119.039 -121.65)"/><path class="a" d="M152.1,122.823h-1.055a.586.586,0,1,1,0-1.173H152.1a.586.586,0,1,1,0,1.173Z" transform="translate(-113.618 -121.65)"/><path class="a" d="M142.471,122.823h-1.055a.586.586,0,0,1,0-1.173h1.055a.586.586,0,1,1,0,1.173Z" transform="translate(-108.201 -121.65)"/><path class="a" d="M132.831,122.823h-1.055a.586.586,0,0,1,0-1.173h1.055a.586.586,0,0,1,0,1.173Z" transform="translate(-102.779 -121.65)"/><path class="a" d="M123.191,122.823h-1.055a.586.586,0,0,1,0-1.173h1.055a.586.586,0,1,1,0,1.173Z" transform="translate(-97.357 -121.65)"/><path class="a" d="M113.561,122.823h-1.055a.586.586,0,1,1,0-1.173h1.055a.586.586,0,1,1,0,1.173Z" transform="translate(-91.941 -121.65)"/><path class="a" d="M103.921,122.823h-1.055a.586.586,0,1,1,0-1.173h1.055a.586.586,0,1,1,0,1.173Z" transform="translate(-86.519 -121.65)"/><path class="a" d="M94.291,122.823H93.236a.586.586,0,0,1,0-1.173h1.055a.586.586,0,1,1,0,1.173Z" transform="translate(-81.103 -121.65)"/><path class="a" d="M84.651,122.823H83.6a.586.586,0,0,1,0-1.173h1.055a.586.586,0,0,1,0,1.173Z" transform="translate(-75.681 -121.65)"/><path class="a" d="M75.011,122.823H73.956a.586.586,0,0,1,0-1.173h1.055a.586.586,0,0,1,0,1.173Z" transform="translate(-70.259 -121.65)"/></g></g></svg>