<svg xmlns="http://www.w3.org/2000/svg" width="76" height="76" viewBox="0 0 76 76">
  <g id="Cobertura_y_Seguridad" data-name="Cobertura y Seguridad" transform="translate(-139 -1746)">
    <g id="Ellipse_9" data-name="Ellipse 9" transform="translate(139 1746)" fill="none" stroke="#a1d6ca" stroke-width="6">
      <circle cx="38" cy="38" r="38" stroke="none"/>
      <circle cx="38" cy="38" r="35" fill="none"/>
    </g>
    <path id="Path_82" data-name="Path 82" d="M63.457,29.952a.614.614,0,0,0-.58-.69A47.058,47.058,0,0,1,45.52,21.176a.747.747,0,0,0-.478-.18h0V20.98a1,1,0,0,0-.47.2c-1.849,1.2-3.675,2.453-5.595,3.518a44.075,44.075,0,0,1-12.2,4.717c-.306.063-.525.149-.533.588a45.1,45.1,0,0,0,.831,10.469,38.539,38.539,0,0,0,1.207,4.451H28.3l-.024.039a41.184,41.184,0,0,0,7.546,13.415,41.759,41.759,0,0,0,8.917,8.094v-.016A42.706,42.706,0,0,0,58.3,51.791a37.633,37.633,0,0,0,3.056-6.817h.016A42.033,42.033,0,0,0,63.457,29.952Z" transform="translate(132.253 1741.14)" fill="#42145f"/>
    <path id="Path_83" data-name="Path 83" d="M61.528,32.829a.528.528,0,0,0-.494-.588A40.389,40.389,0,0,1,46.17,25.322a.611.611,0,0,0-.407-.157h0V25.15a.826.826,0,0,0-.4.172c-1.583,1.026-3.15,2.1-4.788,3.017A37.713,37.713,0,0,1,30.13,32.382c-.259.055-.447.133-.454.5a38.63,38.63,0,0,0,.713,8.964,33.022,33.022,0,0,0,1.034,3.808h.024l-.024.031a35.233,35.233,0,0,0,6.457,11.487,35.712,35.712,0,0,0,7.632,6.935v-.016A36.668,36.668,0,0,0,57.124,51.533,32.437,32.437,0,0,0,59.741,45.7h.008A36.2,36.2,0,0,0,61.528,32.829Z" transform="translate(131.509 1740.237)" fill="#8c4799"/>
    <circle id="Ellipse_10" data-name="Ellipse 10" cx="8.604" cy="8.604" r="8.604" transform="translate(168.503 1775.276)" fill="#fff"/>
    <path id="Path_84" data-name="Path 84" d="M44.62,47.224l2.249,4.537a.366.366,0,0,0,.666-.016c.807-1.967,2.4-7.154,5.516-8.745" transform="translate(128.271 1736.375)" fill="none" stroke="#8c4799" stroke-linecap="round" stroke-miterlimit="10" stroke-width="3"/>
  </g>
</svg>
