<svg xmlns="http://www.w3.org/2000/svg" width="70.443" height="70.665" viewBox="0 0 70.443 70.665"><defs><style>.a{fill:#8c4799;}.b{fill:#42145f;}</style></defs><g transform="translate(-45.83 -45.56)"><path class="a" d="M136.325,82.728a5.238,5.238,0,0,1-1.388.636.879.879,0,0,0-.24,1.432,4.713,4.713,0,0,1-.347,7.055,6.808,6.808,0,0,1-1.846,1.161,1.046,1.046,0,0,0-.271,1.748,3.693,3.693,0,0,1,1.019,4.449,6.19,6.19,0,0,1-2.807,3.225,3.251,3.251,0,0,1-.561.236.848.848,0,0,0-.7.863,1.036,1.036,0,0,0,.374.921,3.582,3.582,0,0,1,1,4.5,7.688,7.688,0,0,1-2.064,2.576,11.636,11.636,0,0,1-2.242,1.21,17.824,17.824,0,0,1-2.193.556c-19.7,4-33.542-1.183-35.3-1.819a14.609,14.609,0,0,0-1.931-.93c-.058,0-.472-.1-.472-.156v-29.5c.734-.516,1.468-1.037,2.206-1.553a1.033,1.033,0,0,0,.2-.173.512.512,0,0,0,.062-.076c3.915-4.92,6.428-10.147,9.342-15.712,1.948-3.719,2.438-11.66,2.42-14.653a3.164,3.164,0,0,1,3.243-3.158,9.112,9.112,0,0,1,2.571.32c.885.325,1.637,1.477,2.393,2.958a34.351,34.351,0,0,1,2.291,6.388,20.148,20.148,0,0,1,.547,2.5,8.662,8.662,0,0,1,.049,1.859c-.049.712-.089,1.419-.16,2.131-.138,1.4-.334,2.78-.569,4.159-.254,1.495-.538,2.985-.845,4.475a.224.224,0,0,0-.009.053,1.756,1.756,0,0,1-.053.369c-.485,1.908,1.459,3.029,2.611,3.514a9.318,9.318,0,0,0,1.908.28c6.3,0,16.864-.036,18.141-.031.85,0,1.708-.018,2.558.027a3.643,3.643,0,0,1,3.39,2.843A4.99,4.99,0,0,1,136.325,82.728Z" transform="translate(-22.495 0)"/><path class="b" d="M49.011,154.88H62.757a3.192,3.192,0,0,0,3.181-3.181V118.371a3.191,3.191,0,0,0-3.181-3.181H49.011a3.191,3.191,0,0,0-3.181,3.181V151.7A3.186,3.186,0,0,0,49.011,154.88Z" transform="translate(0 -38.655)"/><path class="b" d="M49.011,179.317H62.757a3.191,3.191,0,0,0,3.181-3.181V159.21H45.83v16.927A3.186,3.186,0,0,0,49.011,179.317Z" transform="translate(0 -63.092)"/></g></svg>