<svg xmlns="http://www.w3.org/2000/svg" width="168" height="102.972" viewBox="0 0 168 102.972"><defs><style>.a{fill:#d52b1e;}</style></defs><path class="a" d="M137.724,101.61a5.439,5.439,0,0,0-5.474,4.524h10.631a4.883,4.883,0,0,0-5.157-4.524" transform="translate(-74.056 -56.898)"/><path class="a" d="M72.24,104.18a5.912,5.912,0,0,0-6.2,6.288,6.244,6.244,0,1,0,6.2-6.288" transform="translate(-36.98 -58.337)"/><path class="a" d="M111.984,39.827c-5.707,0-10.152,2.279-10.878,8.2-.053,0,.035,0-.018,0C99.293,21.205,78.132,0,50.863,0A51.493,51.493,0,0,0,3.186,32.043H21.46l-.95,6.152H6.169v6.517H19.155l-.994,5.927H6.169v3.8c0,2.306.994,3.393,2.9,3.393H21.324l-.994,6.152H6.754a10.837,10.837,0,0,1-1.888-.167v0A6.088,6.088,0,0,1,1.06,61.675a5.022,5.022,0,0,1-.92-1.905c-.075-.3-.084-.321-.141-.559.1.766.26,1.8.334,2.174.414,2.147.937,3.965.986,4.092a51.574,51.574,0,0,0,99.628-1.487H94.031V51.413c0-3.393-1.311-5.566-4.66-5.566s-4.66,2.174-4.66,5.566V63.99H77.789v-14.3c0-6.834,4.977-9.861,11.582-9.861s11.582,3.032,11.582,9.861l0,14.3h6.966V51.413c0-3.393.906-5.566,4.207-5.566a7.8,7.8,0,0,1,2.759.541l1.311-6.064a33.192,33.192,0,0,0-4.207-.5m-63.47,10.9c0,8.642-5.113,13.707-13.575,13.707-7.828,0-13.122-5.25-13.122-12.308,0-7.375,5.021-12.308,12.532-12.308a9.966,9.966,0,0,1,7.239,2.715V32.043h6.922V50.731Zm17.465,8.506a13.537,13.537,0,0,0,5.69-1.4l-.576,5.474a18.272,18.272,0,0,1-6.785,1.131c-7.965,0-13.575-4.66-13.575-12.576,0-6.878,5.021-12.035,12.713-12.035,8.686,0,13.029,5.518,12.849,14.024H58.375c.682,3.89,4.392,5.386,7.6,5.386"/><path class="a" d="M273.993,90.51c-7.692,0-12.713,5.157-12.713,12.035,0,7.921,5.61,12.576,13.575,12.576a18.272,18.272,0,0,0,6.785-1.131l.572-5.474a13.534,13.534,0,0,1-5.685,1.4c-3.212,0-6.922-1.492-7.6-5.386h17.918c.18-8.506-4.163-14.024-12.849-14.024m-5.25,9.408a5.439,5.439,0,0,1,5.474-4.524,4.88,4.88,0,0,1,5.157,4.524Z" transform="translate(-146.308 -50.683)"/><path class="a" d="M340.891,72.82V83.315a9.984,9.984,0,0,0-7.239-2.715c-7.511,0-12.532,4.933-12.532,12.308,0,7.058,5.294,12.308,13.122,12.308,8.462,0,13.575-5.069,13.575-13.707V72.82Zm-6.336,26.424a6,6,0,0,1-6.2-6.336,6.244,6.244,0,1,1,12.488,0,6,6,0,0,1-6.288,6.336" transform="translate(-179.817 -40.777)"/></svg>