<svg xmlns="http://www.w3.org/2000/svg" width="76" height="77" viewBox="0 0 76 77">
  <g id="Grandes_Beneficios" data-name="Grandes Beneficios" transform="translate(-139 -2100)">
    <g id="Ellipse_2" data-name="Ellipse 2" transform="translate(139 2100)" fill="none" stroke="#a1d6ca" stroke-width="6">
      <ellipse cx="38" cy="38.5" rx="38" ry="38.5" stroke="none"/>
      <ellipse cx="38" cy="38.5" rx="35" ry="35.5" fill="none"/>
    </g>
    <rect id="Rectangle_33" data-name="Rectangle 33" width="20.764" height="30.638" transform="translate(166.742 2121.48)" fill="#a1d6ca"/>
    <path id="XMLID_5565_" d="M57.242,22.35H35.523a3.639,3.639,0,0,0-3.633,3.641v35.6a3.639,3.639,0,0,0,3.633,3.641H57.242a3.639,3.639,0,0,0,3.633-3.641v-35.6A3.644,3.644,0,0,0,57.242,22.35Zm2.08,39.231a2.087,2.087,0,0,1-2.08,2.088H35.523a2.087,2.087,0,0,1-2.08-2.088V25.991a2.087,2.087,0,0,1,2.08-2.088H57.242a2.087,2.087,0,0,1,2.08,2.088Z" transform="translate(130.552 2094.069)" fill="#8c4799"/>
    <path id="XMLID_5564_" d="M50.444,25.39a.4.4,0,0,0,.4-.4.393.393,0,0,0-.4-.4.4.4,0,1,0,0,.8Z" transform="translate(126.49 2093.568)" fill="#42145f"/>
    <path id="XMLID_5563_" d="M48.516,27.472h3a.4.4,0,0,0,0-.792h-3a.4.4,0,0,0,0,.792Z" transform="translate(126.92 2093.101)" fill="#42145f"/>
    <path id="XMLID_5562_" d="M46.82,27.411a.31.31,0,1,0-.31-.31A.307.307,0,0,0,46.82,27.411Z" transform="translate(127.28 2093.076)" fill="#42145f"/>
    <path id="XMLID_5559_" d="M49.871,69.04a2.391,2.391,0,1,0,2.391,2.391A2.392,2.392,0,0,0,49.871,69.04Zm0,4.005a1.615,1.615,0,1,1,1.615-1.615A1.613,1.613,0,0,1,49.871,73.045Z" transform="translate(127.063 2083.622)" fill="#42145f"/>
    <path id="XMLID_5556_" d="M57.694,28.87H37.318a.389.389,0,0,0-.388.388v30.25a.384.384,0,0,0,.388.388H57.694a.384.384,0,0,0,.388-.388V29.258A.384.384,0,0,0,57.694,28.87Zm-.388,30.257h-19.6V29.646h19.6Z" transform="translate(129.424 2092.61)" fill="#8c4799"/>
    <path id="Path_85" data-name="Path 85" d="M45.052,44.2a1.731,1.731,0,0,0-.031-2.453l-.085-.085a2.19,2.19,0,0,0-3.113.039l-2.142,2.057L34.961,48.3c-.171.109-3.377,3.346-3.377,3.346,0-.551.008-1.164.031-1.747a6.468,6.468,0,0,0-1.351-3.835,1.817,1.817,0,0,0-1.1-.753,2.789,2.789,0,0,0-.365-.023c-.792.008-1.731.349-1.91,1.1a2.378,2.378,0,0,0,.078,1.032,5.449,5.449,0,0,1,.31,2.018c-.155,1.421-.458,4.626-.5,6.458.07.295.085,1.071.171,1.351a9.527,9.527,0,0,1,.318,2.041,7.881,7.881,0,0,0,.357,1.358,8.068,8.068,0,0,0,2.22,3.594c1.25,1.226,2.313,2.406,3.873,2.492l.047.047.078-.039a5.77,5.77,0,0,0,4.378-1.715c.287-.295,1.358-1.389,1.56-1.6l4.044-4.137a2.174,2.174,0,0,0,.621-2.344,1.948,1.948,0,0,0-1.094-.97l-.078-.07-.023-.008a1.7,1.7,0,0,0-.07-1.91,2.313,2.313,0,0,0-1.552-1,1.906,1.906,0,0,0-.7-2.2,2.346,2.346,0,0,0-1.8-.52l3.446-3.532Z" transform="translate(131.695 2089.89)" fill="#42145f"/>
  </g>
</svg>
